<?xml version="1.0" standalone="no"?><!DOCTYPE svg PUBLIC "-//W3C//DTD SVG 1.1//EN" "http://www.w3.org/Graphics/SVG/1.1/DTD/svg11.dtd"><svg t="1662386820235" class="icon" viewBox="0 0 1024 1024" version="1.1" xmlns="http://www.w3.org/2000/svg" p-id="1826" width="64" height="64" xmlns:xlink="http://www.w3.org/1999/xlink"><path d="M905.216 55.296l65.536 65.536c34.816 34.816 53.248 81.92 53.248 128 0 47.104-17.408 93.184-53.248 128l-2.048 2.048-142.336 142.336c-34.816 35.84-81.92 53.248-128 53.248-47.104 0-93.184-17.408-129.024-53.248l-2.048-2.048-4.096-4.096-47.104 48.128 5.12 6.144c34.816 34.816 53.248 81.92 53.248 128 0 47.104-17.408 93.184-53.248 129.024l-2.048 2.048-142.336 142.336c-34.816 34.816-81.92 53.248-128 53.248-47.104 0-93.184-17.408-128-53.248l-66.56-66.56C18.432 868.352 0 822.272 0 775.168s18.432-93.184 53.248-128v-1.024L197.632 501.76c35.84-34.816 81.92-53.248 128-53.248s93.184 17.408 128 53.248l5.12 6.144 48.128-48.128-6.144-6.144c-33.792-33.792-53.248-80.896-53.248-128s17.408-93.184 53.248-128l1.024-1.024 143.36-143.36C679.936 18.432 727.04 0 773.12 0S866.304 17.408 901.12 53.248l4.096 2.048z m10.24 120.832L849.92 110.592l-2.048-2.048c-20.48-20.48-46.08-29.696-72.704-29.696-26.624 0-53.248 10.24-72.704 29.696L558.08 252.928c-19.456 20.48-29.696 46.08-29.696 72.704 0 26.624 10.24 53.248 29.696 72.704v1.024l6.144 5.12 69.632-69.632c15.36-15.36 39.936-15.36 55.296 0 15.36 16.384 15.36 40.96 0 56.32L619.52 460.8l4.096 4.096 2.048 2.048c19.456 19.456 46.08 29.696 72.704 29.696 26.624 0 53.248-10.24 72.704-29.696l142.336-143.36 2.048-1.024c20.48-20.48 29.696-47.104 29.696-72.704 0-27.648-10.24-54.272-29.696-73.728zM465.92 624.64l-5.12-5.12-68.608 68.608c-15.36 15.36-39.936 15.36-55.296 0-15.36-15.36-15.36-40.96 0-55.296l68.608-69.632-6.144-5.12h-1.024 1.024c-20.48-20.48-47.104-29.696-72.704-29.696s-53.248 9.216-72.704 29.696L108.544 702.464c-19.456 20.48-29.696 46.08-29.696 72.704 0 26.624 10.24 53.248 29.696 72.704l67.584 66.56c19.456 20.48 46.08 29.696 72.704 29.696 26.624 0 53.248-10.24 72.704-29.696l142.336-142.336 1.024-2.048c20.48-20.48 29.696-46.08 29.696-72.704 1.024-26.624-9.216-52.224-28.672-72.704z" p-id="1827"></path></svg>