<?xml version="1.0" standalone="no"?><!DOCTYPE svg PUBLIC "-//W3C//DTD SVG 1.1//EN" "http://www.w3.org/Graphics/SVG/1.1/DTD/svg11.dtd"><svg t="1668996055558" class="icon" viewBox="0 0 1024 1024" version="1.1" xmlns="http://www.w3.org/2000/svg" p-id="8784" xmlns:xlink="http://www.w3.org/1999/xlink" width="200" height="200"><path d="M814.336 671.232h-105.813333a17.066667 17.066667 0 0 1-15.018667-25.173333l140.714667-260.48a20.138667 20.138667 0 0 1 35.456 0l139.818666 258.773333a18.304 18.304 0 0 1-16.042666 26.88h-104.021334a411.093333 411.093333 0 0 1-222.08 219.306667 408.96 408.96 0 0 1-511.317333-179.072 84.864 84.864 0 0 0 68.821333-17.066667A342.272 342.272 0 0 0 384.085333 827.733333a340.906667 340.906667 0 0 0 363.946667-68.992 342.912 342.912 0 0 0 66.304-87.509333zM136.277333 352.768a412.202667 412.202667 0 0 1 203.861334-211.328 405.76 405.76 0 0 1 167.466666-38.186667h10.538667a405.845333 405.845333 0 0 1 167.424 38.186667 412.544 412.544 0 0 1 176.512 158.08 89.856 89.856 0 0 0-57.045333 31.104l-2.005334 2.474667a344.149333 344.149333 0 0 0-146.176-130.176 338.005333 338.005333 0 0 0-139.562666-31.829334h-8.832a337.194667 337.194667 0 0 0-139.562667 31.829334 344.106667 344.106667 0 0 0-157.525333 149.845333h104.106666a17.066667 17.066667 0 0 1 15.018667 25.173333l-140.714667 260.48a20.138667 20.138667 0 0 1-35.456 0L14.506667 379.648a18.304 18.304 0 0 1 16.042666-26.88h105.728z" p-id="8785"></path></svg>