<svg t="1659851625202" class="icon" viewBox="0 0 1024 1024" version="1.1" xmlns="http://www.w3.org/2000/svg" p-id="10490" xmlns:xlink="http://www.w3.org/1999/xlink" width="40" height="40"><path d="M768 256H353.984a31.168 31.168 0 0 1-23.04-8.96 31.168 31.168 0 0 1-8.96-23.04c0-9.344 3.008-17.024 8.96-23.04a31.168 31.168 0 0 1 23.04-8.96H800c9.344 0 17.024 3.008 23.04 8.96 5.952 6.016 8.96 13.696 8.96 23.04v448a31.168 31.168 0 0 1-8.96 23.04 31.168 31.168 0 0 1-23.04 8.96 31.168 31.168 0 0 1-23.04-8.96 31.168 31.168 0 0 1-8.96-23.04V256z m8.96-55.04A33.408 33.408 0 0 1 800 192a30.72 30.72 0 0 1 22.464 9.472A30.72 30.72 0 0 1 832 224a33.408 33.408 0 0 1-8.96 23.04l-544 544a33.408 33.408 0 0 1-23.04 8.96 30.72 30.72 0 0 1-22.528-9.536A30.72 30.72 0 0 1 224 768c0-8.64 3.008-16.32 8.96-23.04l544-544z" fill="#000000" p-id="10491"></path></svg>
