<?xml version="1.0" standalone="no"?><!DOCTYPE svg PUBLIC "-//W3C//DTD SVG 1.1//EN" "http://www.w3.org/Graphics/SVG/1.1/DTD/svg11.dtd"><svg t="1668995692380" class="icon" viewBox="0 0 1024 1024" version="1.1" xmlns="http://www.w3.org/2000/svg" p-id="2827" xmlns:xlink="http://www.w3.org/1999/xlink" width="200" height="200"><path d="M914.773333 689.493333c-10.24 0-17.066667 6.826667-17.066666 17.066667v80.213333c0 66.56-52.906667 119.466667-119.466667 119.466667h-580.266667c-66.56 0-119.466667-52.906667-119.466666-119.466667V387.413333c0-66.56 52.906667-119.466667 119.466666-119.466666h580.266667c66.56 0 119.466667 52.906667 119.466667 119.466666v80.213334c0 10.24 6.826667 17.066667 17.066666 17.066666s17.066667-6.826667 17.066667-17.066666v-80.213334c0-85.333333-68.266667-153.6-153.6-153.6h-121.173333v-1.706666L614.4 158.72C571.733333 85.333333 477.866667 61.44 404.48 102.4l-218.453333 126.293333c-3.413333 1.706667-5.12 3.413333-5.12 6.826667-76.8 8.533333-134.826667 73.386667-134.826667 151.893333v401.066667c0 85.333333 68.266667 153.6 153.6 153.6h580.266667c85.333333 0 153.6-68.266667 153.6-153.6v-80.213333c-1.706667-10.24-8.533333-18.773333-18.773334-18.773334zM421.546667 133.12c56.32-32.426667 129.706667-13.653333 163.84 44.373333l34.133333 58.026667H245.76l175.786667-102.4z" p-id="2828"></path><path d="M892.586667 501.76h-168.96c-47.786667 0-87.04 39.253333-87.04 87.04s39.253333 87.04 87.04 87.04h168.96c47.786667 0 87.04-39.253333 87.04-87.04s-39.253333-87.04-87.04-87.04z m0 138.24h-168.96c-29.013333 0-52.906667-23.893333-52.906667-52.906667s23.893333-52.906667 52.906667-52.906666h168.96c29.013333 0 52.906667 23.893333 52.906666 52.906666s-23.893333 52.906667-52.906666 52.906667z" p-id="2829"></path><path d="M735.573333 587.093333m-34.133333 0a34.133333 34.133333 0 1 0 68.266667 0 34.133333 34.133333 0 1 0-68.266667 0Z" p-id="2830"></path></svg>